solid bb
   facet normal -1.000000e+00 0.000000e+00 0.000000e+00
      outer loop
         vertex -1.000000e+02 -1.000000e+02 4.000000e+01
         vertex -1.000000e+02 1.000000e+02 4.000000e+01
         vertex -1.000000e+02 -1.000000e+02 0.000000e+00
      endloop
   endfacet
   facet normal -1.000000e+00 0.000000e+00 -0.000000e+00
      outer loop
         vertex -1.000000e+02 1.000000e+02 4.000000e+01
         vertex -1.000000e+02 1.000000e+02 0.000000e+00
         vertex -1.000000e+02 -1.000000e+02 0.000000e+00
      endloop
   endfacet
   facet normal -0.000000e+00 -1.000000e+00 0.000000e+00
      outer loop
         vertex -9.750000e+01 -1.000000e+02 1.000000e+01
         vertex -1.000000e+02 -1.000000e+02 4.000000e+01
         vertex -1.000000e+02 -1.000000e+02 0.000000e+00
      endloop
   endfacet
   facet normal -0.000000e+00 -1.000000e+00 0.000000e+00
      outer loop
         vertex 9.750000e+01 -1.000000e+02 1.000000e+01
         vertex -9.750000e+01 -1.000000e+02 1.000000e+01
         vertex -1.000000e+02 -1.000000e+02 0.000000e+00
      endloop
   endfacet
   facet normal 0.000000e+00 -1.000000e+00 0.000000e+00
      outer loop
         vertex 1.000000e+02 -1.000000e+02 0.000000e+00
         vertex 9.750000e+01 -1.000000e+02 1.000000e+01
         vertex -1.000000e+02 -1.000000e+02 0.000000e+00
      endloop
   endfacet
   facet normal 0.000000e+00 0.000000e+00 -1.000000e+00
      outer loop
         vertex -1.000000e+02 1.000000e+02 0.000000e+00
         vertex 1.000000e+02 -1.000000e+02 0.000000e+00
         vertex -1.000000e+02 -1.000000e+02 0.000000e+00
      endloop
   endfacet
   facet normal 0.000000e+00 -1.000000e+00 -0.000000e+00
      outer loop
         vertex 1.000000e+02 -1.000000e+02 4.000000e+01
         vertex 9.750000e+01 -1.000000e+02 1.000000e+01
         vertex 1.000000e+02 -1.000000e+02 0.000000e+00
      endloop
   endfacet
   facet normal 1.000000e+00 0.000000e+00 0.000000e+00
      outer loop
         vertex 1.000000e+02 1.000000e+02 0.000000e+00
         vertex 1.000000e+02 -1.000000e+02 4.000000e+01
         vertex 1.000000e+02 -1.000000e+02 0.000000e+00
      endloop
   endfacet
   facet normal 0.000000e+00 0.000000e+00 -1.000000e+00
      outer loop
         vertex -1.000000e+02 1.000000e+02 0.000000e+00
         vertex 1.000000e+02 1.000000e+02 0.000000e+00
         vertex 1.000000e+02 -1.000000e+02 0.000000e+00
      endloop
   endfacet
   facet normal -0.000000e+00 -1.000000e+00 -0.000000e+00
      outer loop
         vertex -9.750000e+01 -1.000000e+02 4.000000e+01
         vertex -1.000000e+02 -1.000000e+02 4.000000e+01
         vertex -9.750000e+01 -1.000000e+02 1.000000e+01
      endloop
   endfacet
   facet normal 0.000000e+00 0.000000e+00 1.000000e+00
      outer loop
         vertex 9.750000e+01 9.750000e+01 1.000000e+01
         vertex -9.750000e+01 9.750000e+01 1.000000e+01
         vertex -9.750000e+01 -1.000000e+02 1.000000e+01
      endloop
   endfacet
   facet normal 0.000000e+00 -0.000000e+00 1.000000e+00
      outer loop
         vertex 9.750000e+01 -1.000000e+02 1.000000e+01
         vertex 9.750000e+01 9.750000e+01 1.000000e+01
         vertex -9.750000e+01 -1.000000e+02 1.000000e+01
      endloop
   endfacet
   facet normal 1.000000e+00 0.000000e+00 0.000000e+00
      outer loop
         vertex -9.750000e+01 9.750000e+01 1.000000e+01
         vertex -9.750000e+01 -1.000000e+02 4.000000e+01
         vertex -9.750000e+01 -1.000000e+02 1.000000e+01
      endloop
   endfacet
   facet normal -0.000000e+00 -1.000000e+00 0.000000e+00
      outer loop
         vertex 1.000000e+02 -1.000000e+02 4.000000e+01
         vertex 9.750000e+01 -1.000000e+02 4.000000e+01
         vertex 9.750000e+01 -1.000000e+02 1.000000e+01
      endloop
   endfacet
   facet normal -1.000000e+00 0.000000e+00 0.000000e+00
      outer loop
         vertex 9.750000e+01 -1.000000e+02 4.000000e+01
         vertex 9.750000e+01 9.750000e+01 4.000000e+01
         vertex 9.750000e+01 -1.000000e+02 1.000000e+01
      endloop
   endfacet
   facet normal -1.000000e+00 0.000000e+00 -0.000000e+00
      outer loop
         vertex 9.750000e+01 9.750000e+01 4.000000e+01
         vertex 9.750000e+01 9.750000e+01 1.000000e+01
         vertex 9.750000e+01 -1.000000e+02 1.000000e+01
      endloop
   endfacet
   facet normal 0.000000e+00 0.000000e+00 1.000000e+00
      outer loop
         vertex -9.750000e+01 -1.000000e+02 4.000000e+01
         vertex -1.000000e+02 1.000000e+02 4.000000e+01
         vertex -1.000000e+02 -1.000000e+02 4.000000e+01
      endloop
   endfacet
   facet normal 1.000000e+00 0.000000e+00 -0.000000e+00
      outer loop
         vertex -9.750000e+01 9.750000e+01 1.000000e+01
         vertex -9.750000e+01 9.750000e+01 4.000000e+01
         vertex -9.750000e+01 -1.000000e+02 4.000000e+01
      endloop
   endfacet
   facet normal 0.000000e+00 0.000000e+00 1.000000e+00
      outer loop
         vertex -9.750000e+01 9.750000e+01 4.000000e+01
         vertex -1.000000e+02 1.000000e+02 4.000000e+01
         vertex -9.750000e+01 -1.000000e+02 4.000000e+01
      endloop
   endfacet
   facet normal 0.000000e+00 0.000000e+00 1.000000e+00
      outer loop
         vertex 1.000000e+02 -1.000000e+02 4.000000e+01
         vertex 9.750000e+01 9.750000e+01 4.000000e+01
         vertex 9.750000e+01 -1.000000e+02 4.000000e+01
      endloop
   endfacet
   facet normal 1.000000e+00 0.000000e+00 -0.000000e+00
      outer loop
         vertex 1.000000e+02 1.000000e+02 0.000000e+00
         vertex 1.000000e+02 1.000000e+02 4.000000e+01
         vertex 1.000000e+02 -1.000000e+02 4.000000e+01
      endloop
   endfacet
   facet normal 0.000000e+00 0.000000e+00 1.000000e+00
      outer loop
         vertex 1.000000e+02 1.000000e+02 4.000000e+01
         vertex 9.750000e+01 9.750000e+01 4.000000e+01
         vertex 1.000000e+02 -1.000000e+02 4.000000e+01
      endloop
   endfacet
   facet normal 0.000000e+00 -1.000000e+00 0.000000e+00
      outer loop
         vertex 9.750000e+01 9.750000e+01 1.000000e+01
         vertex -9.750000e+01 9.750000e+01 4.000000e+01
         vertex -9.750000e+01 9.750000e+01 1.000000e+01
      endloop
   endfacet
   facet normal -0.000000e+00 -1.000000e+00 -0.000000e+00
      outer loop
         vertex 9.750000e+01 9.750000e+01 4.000000e+01
         vertex -9.750000e+01 9.750000e+01 4.000000e+01
         vertex 9.750000e+01 9.750000e+01 1.000000e+01
      endloop
   endfacet
   facet normal 0.000000e+00 -0.000000e+00 1.000000e+00
      outer loop
         vertex 9.750000e+01 9.750000e+01 4.000000e+01
         vertex 1.000000e+02 1.000000e+02 4.000000e+01
         vertex -9.750000e+01 9.750000e+01 4.000000e+01
      endloop
   endfacet
   facet normal 0.000000e+00 0.000000e+00 1.000000e+00
      outer loop
         vertex 1.000000e+02 1.000000e+02 4.000000e+01
         vertex -1.000000e+02 1.000000e+02 4.000000e+01
         vertex -9.750000e+01 9.750000e+01 4.000000e+01
      endloop
   endfacet
   facet normal -0.000000e+00 1.000000e+00 0.000000e+00
      outer loop
         vertex -1.000000e+02 1.000000e+02 4.000000e+01
         vertex 1.000000e+02 1.000000e+02 4.000000e+01
         vertex -1.000000e+02 1.000000e+02 0.000000e+00
      endloop
   endfacet
   facet normal 0.000000e+00 1.000000e+00 0.000000e+00
      outer loop
         vertex 1.000000e+02 1.000000e+02 4.000000e+01
         vertex 1.000000e+02 1.000000e+02 0.000000e+00
         vertex -1.000000e+02 1.000000e+02 0.000000e+00
      endloop
   endfacet
endsolid